/* XPM */
static char *images1697533649[] = {
/* columns rows colors chars-per-pixel */
"32 32 21 1 ",
"  c #2F4A18",
". c #304A18",
"X c #304B18",
"o c #304C19",
"O c #314C19",
"+ c #3A5C1E",
"@ c #3B5E1E",
"# c #3E6220",
"$ c #416722",
"% c #426922",
"& c #426A22",
"* c #436B23",
"= c #446D22",
"- c #456E23",
"; c #457124",
": c #4A7625",
"> c #4A7725",
", c #4B7826",
"< c #4A7B26",
"1 c #4C7926",
"2 c #4B7C26",
/* pixels */
"@@@@@@=:>>>:-X..ooX#-#-%#;2,2<<<",
"@@@@@@-:>>>:-X.Xo..#-#%%%;2222<<",
"@@@@@+-:>>:1-...o.o#%%%%=;22<<<<",
"@@@@@@-,>,:1-X..o.o#-%%%#;22<<<<",
"@@@@@+=:>>>:- XXo..$%$%-#;2<<<<<",
"@@@@@+-:>>>>- XXo..$%$%%%;2<<<<<",
"@@@@@@-,>>:1- XXo.o@%$%%%;2<<<<<",
"@@@@@@=:,:,1- XXo.o%*%%%#;2<<<<<",
"@@@@@+=::>>,- XXoo #*$$&=;<<<<<<",
"@@@@@+=:,>>,- XXoo #*$&&#;<<<<<<",
"@@@@@@=,::>:- Xooo #*&&&&;<<<<<<",
"@@@@@@=,:,:,- X.oo #*$&&#><<<<<<",
"@@@@@+=,:::,- .ooOo#*&&&#;2<<<<<",
"@@@@@+-,,,:,- .Xooo#*&$&&>2<<<<<",
"@@@@@+=:,>>,- X.O o#-#&&#;<<<<<<",
"@@@@@+=::,>>-XXXOOo#;#&-&;<<<<<<",
"@@@@@+-1>>,1- XXO O#*$&&$;2<<<<<",
"@@@@@@-:>>>1- XXOO #*$$&$;2<<<<<",
"@@@@@+-,>>,,- oXO O#*$$&$;2<<<<<",
"@@@@@+-1>>:1- .oOO #*$*&$;2<<<<<",
"@@@@@+%:>>::- o.OO #*$*&$;2<<<<<",
"@@@@@+-:>>::- .oO O#*$$*$;2<<<<<",
"@@@@@+-1::::- o.O O#*$**$;2<<<<<",
"@@@@@@-1:::1-..oOO #*$$*$;2<<<<<",
"@@@@@+=>:,:,-...O O#*$$&$;2<<<<<",
"@@@@@+->:::2-..O O #*$&&$;2<<<<<",
"@@@@@+->:::,-...oOO#*&&&$;2<<<<<",
"@@@@@+->:<:,-...O O#&$&&$;2<<<<<",
"@@@@@+->:::,-.O OO $&&&&$;2<<<<<",
"@@@@@+->::::-. OO O#&&$&$;2<<<<<",
"@@@@@+->::<,-. . O #*$$&$;2<<<<<",
"@@@@@+->:,,,-.O O O#-$*&$;2<<<<<"
};
