/* XPM */
static char *png_transparent_minecraft_golden_apple_pixel_art_item_video_games_minecraft_heart_game_text_rectangle_removebg_preview1697532813[] = {
/* columns rows colors chars-per-pixel */
"32 32 148 2 ",
"   c None",
".  c black",
"X  c #000003",
"o  c #000004",
"O  c #080305",
"+  c #170A03",
"@  c #160F00",
"#  c #3B3504",
"$  c #3E3907",
"%  c #3B371C",
"&  c #000022",
"*  c #0E003C",
"=  c #3C3820",
"-  c #3D3A24",
";  c #433D1F",
":  c #653900",
">  c #7A4500",
",  c #7E4800",
"<  c #7F4800",
"1  c #775C38",
"2  c #5E504A",
"3  c #824A00",
"4  c #884F01",
"5  c #8D5301",
"6  c #995800",
"7  c #AD6300",
"8  c #AF6200",
"9  c #B06801",
"0  c #BB6E00",
"q  c #895631",
"w  c #A06A3F",
"e  c #B0723B",
"r  c #C56A00",
"t  c #CF6F00",
"y  c #CA7801",
"u  c #C97B03",
"i  c #DB7000",
"p  c #D27C00",
"a  c #D37F02",
"s  c #B07D41",
"d  c #8F8B1F",
"f  c #AB9D10",
"g  c #B9A900",
"h  c #948821",
"j  c #DE8100",
"k  c #E88B02",
"l  c #E88C02",
"z  c #F98D00",
"x  c #FF8F00",
"c  c #F5890B",
"v  c #F3890E",
"b  c #F09002",
"n  c #F19102",
"m  c #FB9300",
"M  c #FF9000",
"N  c #FA9501",
"B  c #FC9400",
"V  c #FF9400",
"C  c #FF9500",
"Z  c #FF9600",
"A  c #FE9902",
"S  c #FF9C00",
"D  c #FF9E00",
"F  c #FF9F02",
"G  c #EF8614",
"H  c #FFA203",
"J  c #FFA503",
"K  c #FFA30B",
"L  c #E6A91D",
"P  c #FFAE15",
"I  c #FFB318",
"U  c #FDB41D",
"Y  c #FEB41D",
"T  c #FEB51D",
"R  c #FFB61D",
"E  c #FDB61E",
"W  c #FFB81D",
"Q  c #FFBB1D",
"!  c #FFBF1F",
"~  c #D78D33",
"^  c #FEBE23",
"/  c #D5C300",
"(  c #DCCB00",
")  c #FFC81B",
"_  c #F5E200",
"`  c #FBE700",
"'  c #FEEA00",
"]  c #FFEB00",
"[  c #FDE90F",
"{  c #FFEB1B",
"}  c #D5C535",
"|  c #FFCC2B",
" . c #FFCF2D",
".. c #E1D02F",
"X. c #FFD12A",
"o. c #FFD12B",
"O. c #FFD12C",
"+. c #FDD22F",
"@. c #FFD32E",
"#. c #FFEC24",
"$. c #FFF324",
"%. c #FFEC33",
"&. c #FFEC36",
"*. c #F4E23A",
"=. c #FBE839",
"-. c #FFEA3A",
";. c #FFEB3A",
":. c #FFEB3B",
">. c #FFEC3B",
",. c #FFED3B",
"<. c #FFEB3F",
"1. c #FBEC3C",
"2. c #FFEC3C",
"3. c #FFEC3D",
"4. c #FDEF3D",
"5. c #FFEE3C",
"6. c #FFEF3C",
"7. c #FFEF3D",
"8. c #FFEC3E",
"9. c #FEF03D",
"0. c #FFF03D",
"q. c #FEF13E",
"w. c #FFF33E",
"e. c #FEF33F",
"r. c #CDB841",
"t. c #FEEA41",
"y. c #FEED42",
"u. c #FFEC43",
"i. c #FFF441",
"p. c #FFF648",
"a. c #FFED50",
"s. c #FFFD59",
"d. c #FDEB6C",
"f. c #FFF371",
"g. c #FEEE81",
"h. c #FFF08A",
"j. c #FFF8AA",
"k. c #F9F1BF",
"l. c #FFF7BE",
"z. c #FFF8D2",
"x. c #FFFEE1",
"c. c #FEFBEA",
"v. c #FFFCF0",
"b. c #FFFCF2",
"n. c #FFFFF9",
"m. c #FCFDFF",
"M. c #FEFFFF",
"N. c white",
/* pixels */
"                                                                ",
"                                                                ",
"                              .                                 ",
"                            . .                                 ",
"                          . . .                                 ",
"                          O +                                   ",
"                      . . @ . o                                 ",
"                  . ; } 1 * q t o .                             ",
"                h f g $.r.s ~ ) 8 8 5                           ",
"              . ..s.f.d.p.) Q 8.P H a .                         ",
"              & / j.m.m.g.[ t.;.1.Q r .                         ",
"            = ( k.n.b.h.a.>.:.:.8.T z a .                       ",
"            - ` x.m.c.] &.8.>.;.9.T C b .                       ",
"            % _ l.c.z.y.>.8.>.;.9.T C l .                       ",
"            # *.#.] { 8.>.8.>.;.8.T C k .                       ",
"            $ =.i.y.8.:.;.;.;.;.w.T C b .                       ",
"              h L @.i.9.9.9.9.8.| K a 4                         ",
"              . i I +.| o.o.o.| z S p .                         ",
"              . u N x x v G c x S C 0 .                         ",
"                . 9 H F w 2 e F F 6 .                           ",
"                  : 3 >       , ,                               ",
"                                                                ",
"                                                                ",
"                                                                ",
"                                                                ",
"                                                                ",
"                                                                ",
"                                                                ",
"                                                                ",
"                                                                ",
"                                                                ",
"                                                                "
};
