/* XPM */
static char *desktop_wallpaper_nether_portal_by_jtginc_minecraft_portal1697533470[] = {
/* columns rows colors chars-per-pixel */
"32 32 62 1 ",
"  c #170065",
". c #1F0067",
"X c #1D006A",
"o c #23006D",
"O c #250072",
"+ c #2B0175",
"@ c #2D037A",
"# c #2D097A",
"$ c #310376",
"% c #32047C",
"& c #39047D",
"* c #330A7D",
"= c #39097F",
"- c #35107E",
"; c #2F0581",
": c #2E0B81",
"> c #340581",
", c #3A0683",
"< c #350B82",
"1 c #3B0C84",
"2 c #3C0D8A",
"3 c #341483",
"4 c #3C1285",
"5 c #3E138B",
"6 c #3D198B",
"7 c #430D87",
"8 c #420D8B",
"9 c #411486",
"0 c #43148C",
"q c #49148D",
"w c #431A8D",
"e c #491A8E",
"r c #441591",
"t c #4B1593",
"y c #461A93",
"u c #4B1B94",
"i c #4C1799",
"p c #471E98",
"a c #4C1D9A",
"s c #511B95",
"d c #50179C",
"f c #521D9A",
"g c #581D9D",
"h c #4D2196",
"j c #4D229B",
"k c #502297",
"l c #53229C",
"z c #5A259E",
"x c #572A9E",
"c c #58299B",
"v c #571AA3",
"b c #5424A1",
"n c #5A25A2",
"m c #572AA1",
"M c #5B2AA3",
"N c #5E26A9",
"B c #5E2AA8",
"V c #5F32A7",
"C c #6126A6",
"Z c #612BA6",
"A c #632CAD",
"S c #6434AB",
/* pixels */
"*+<1&tNq7tt&1nz91+35@%pB8,78%=yh",
"@@@+@<5119710u<oo+o+4=%wu1561whw",
"umcw4$+<+oo@4w1@&whse&o&4+O##11o",
"&fZz9++49*O%51&+O>lSs==+*#OO*uq%",
"&8ff1+=41<*2uj8%>@2vau0O653:2pi2",
"aypr==<*O@##5jbppbi5y7@>O@@@;5bN",
"55,@,5r5va8@O@25@yy<,@;ppau2%+>0",
"@y2;5iiNNnv8,>7r@+56>2pimNNt<@*5",
"#*%+2lu=o+4*o+44#*=%$0ku@+$4$+*4",
"uuq<8fa2%++o+2ap*6jt&,ua0>%+oO<y",
"+&%+&rarwh5<wjr>%*><>2ab01542ybb",
"$44%+>9w#4-*ww%+*++%%%&,4494494O",
"4kmh1+@*++oO6-+%@9xSb1+%+Ooo@99+",
"$9zzr,><6*+<uu,%.+0jf1@@u4*@<rq@",
"7qfft2,2*@@<rlu>wuwtap21****5uir",
"ce7=*@#*#3-OOeme1eu95*+*<#$$+1ul",
"<22@@8dvAAy3+;52%@55@,t8CCVw++><",
"@13#2fnitq44#+5f$*4<@0nze999#O<u",
"@65+%la,O$O++O2r*3w3@&uq&+++OO=w",
"5jp,<pf0&2<;2pp<%5p9>0bn=1-=>5p5",
" O#+@,ia4w5<yby@X+%@O@2r5w545hp>",
"6hma1$+*#O#*11+o*4ukw,@#<+o$=1*O",
"+4lnr%+*-o+,00$$O*wMz1+o4+o$7w4+",
"o1jnt1<4w*&,iB7@<=7lg8%2w3&$1bf>",
"Zsry5@@2o#@+:jCtqnfqr2@6O##+>qdg",
"=4<<;2ruMzy*O<r2&<5>@>27bmk9%@<2",
"+6w<,ugulkh4@@<6#@55@8Zfleu0+o<5",
"o=4@%rp2o+$+O@2q=%q5+1l5+.+$O%wr",
"wku12uaw$-*+*wuu*5yw<rll-*44=wl1",
"ooo+%7us9e94wjy*X+++@&1qe0955hy+",
"6we0,$$%#$+&0w+X-4wh5%+=*+oo*4#X",
"$wMzu<@#-#o+qq&%$*hVl4#+3#o+901,"
};
