/* XPM */
static char *steve1697531590[] = {
/* columns rows colors chars-per-pixel */
"32 32 196 2 ",
"   c None",
".  c black",
"X  c #07191F",
"o  c #220000",
"O  c #310000",
"+  c #271C13",
"@  c #29241E",
"#  c #01003C",
"$  c #060037",
"%  c #1C163F",
"&  c #1B163B",
"*  c #220D3F",
"=  c #0C283A",
"-  c #34322E",
";  c #501F01",
":  c #611F00",
">  c #73351A",
",  c #703C29",
"<  c #7D401A",
"1  c #47413E",
"2  c #76422D",
"3  c #764833",
"4  c #020042",
"5  c #0D0642",
"6  c #190742",
"7  c #1D1644",
"8  c #1E1845",
"9  c #1E174A",
"0  c #1B1445",
"q  c #23024A",
"w  c #22094A",
"e  c #211B45",
"r  c #221A4C",
"t  c #20174B",
"y  c #250051",
"u  c #2A065C",
"i  c #241B53",
"p  c #281E5D",
"a  c #231856",
"s  c #18374A",
"d  c #173F50",
"f  c #2A2544",
"g  c #2A244E",
"h  c #2F2A43",
"j  c #362E49",
"k  c #3D364C",
"l  c #2A2353",
"z  c #28225D",
"x  c #312E52",
"c  c #291E62",
"v  c #2B2363",
"b  c #2E2A64",
"n  c #2F2269",
"m  c #1C4B5D",
"M  c #1A4254",
"N  c #005C54",
"B  c #005855",
"V  c #006257",
"C  c #00645B",
"Z  c #346056",
"A  c #006C64",
"S  c #07746B",
"D  c #12776C",
"F  c #027C74",
"G  c #007F78",
"H  c #0E7E72",
"J  c #186E71",
"K  c #25796D",
"L  c #5B554C",
"P  c #56584C",
"I  c #534C5D",
"U  c #544E56",
"Y  c #665546",
"T  c #635E55",
"R  c #6B5D54",
"E  c #705E54",
"W  c #755A42",
"Q  c #566857",
"!  c #4F705C",
"~  c #406A59",
"^  c #6C655B",
"/  c #686557",
"(  c #736454",
")  c #776856",
"_  c #64705E",
"`  c #75725C",
"'  c #7D795F",
"]  c #797259",
"[  c #5D5663",
"{  c #534B61",
"}  c #605964",
"|  c #5C7E71",
" . c #456E64",
".. c #6D6A60",
"X. c #746C63",
"o. c #786F65",
"O. c #7C736B",
"+. c #8A4B2D",
"@. c #8C4E32",
"#. c #9B5C3C",
"$. c #955638",
"%. c #8A5035",
"&. c #A05B38",
"*. c #A9672E",
"=. c #8C5B40",
"-. c #935F42",
";. c #8D644B",
":. c #966848",
">. c #846B52",
",. c #837155",
"<. c #996F58",
"1. c #A36444",
"2. c #B37949",
"3. c #B67C51",
"4. c #A17953",
"5. c #A97F63",
"6. c #C17D51",
"7. c #008176",
"8. c #01847C",
"9. c #02897D",
"0. c #0A857D",
"q. c #11837A",
"w. c #12867A",
"e. c #598775",
"r. c #BD8352",
"t. c #BA8359",
"y. c #B08252",
"u. c #BA8A66",
"i. c #B4976D",
"p. c #B89676",
"a. c #BAA075",
"s. c #C18353",
"d. c #C48959",
"f. c #CB9664",
"g. c #CD9966",
"h. c #CD9B6A",
"j. c #C4966C",
"k. c #D39D64",
"l. c #D29D6C",
"z. c #C49975",
"x. c #D29E71",
"c. c #D4A06D",
"v. c #D9A26F",
"b. c #CFA173",
"n. c #D5A172",
"m. c #D9A475",
"M. c #DBA77A",
"N. c #E0AB78",
"B. c #028681",
"V. c #028C83",
"C. c #088F86",
"Z. c #03948A",
"A. c #029A8E",
"S. c #089389",
"D. c #15968A",
"F. c #159889",
"G. c #039D91",
"H. c #0F9D90",
"J. c #199F93",
"K. c #108B86",
"L. c #299D8C",
"P. c #2D9F97",
"I. c #03A395",
"U. c #0CA69B",
"Y. c #04AE9F",
"T. c #08A599",
"R. c #1AA296",
"E. c #16A597",
"W. c #35A398",
"Q. c #05AFA0",
"!. c #768DB5",
"~. c #BB9881",
"^. c #B2AB9C",
"/. c #B0A79D",
"(. c #9D9AA0",
"). c #9796A9",
"_. c #A299A9",
"`. c #BCB2A4",
"'. c #BEB3A8",
"]. c #D1AE90",
"[. c #E2BB9C",
"{. c #E8BC96",
"}. c #E3B28C",
"|. c #C0AEA9",
" X c #C7B9B2",
".X c #CAB3A8",
"XX c #E4BEA0",
"oX c #E8C09E",
"OX c #E8C0A2",
"+X c #F0C8A1",
"@X c #E3C9B3",
"#X c #B2B9C2",
"$X c #C0BEC3",
"%X c #ECD8C6",
"&X c #F2E5D6",
"*X c #F5F0E3",
/* pixels */
"                                                                ",
"                @ . . . . . . . . . . . . . @ @                 ",
"              X . 1 ..T R ( ) ) ) ) E ( ] - . .                 ",
"              ) R p.}.XX+XOXXXXXXX{.{.N.h.y.W 3                 ",
"                {.@X%X'.)..X[.[.XX.X). X%X[.k.5.                ",
"                c.@X*X'.!.(.p.~.~.(.!.#X&X].2.<.                ",
"              5.3.r.d.j.z.;.O ; o <.f.2.*.&.1.;.                ",
"                $.@.$.> : , 2 2 3 , > %.1.$.&.#.                ",
"              | ( ( ( >.#.#.:.$.$.:.#.:.>.>.,.,.                ",
"P.I.U.U.Q.U.T.H.q.D q.K P Y +.+.< 3 P Z 7.8.7.9.T.Y.Q.Q.Q.Y.Y.L.",
"W.H.R.R.R.J.J.D.F F V.V.9.H Q / /  .9.9.S.C.9.9.J.J.J.R.R.R.E.L.",
"V.G B.9.B.B.V.V.F F Z.C.K.9.V.V.9.9.K.S.Z.0.S 7.V.V.7.7.7.8.9.F ",
"O./ ) ] ` ` ] _ V A 0.V.A.A.H.F.w.0.A.V.0.q.B Z ` ) ,.,.,.,.,.] ",
"t.r.r.r.d.r.6.4.B N D 0.T.I.I.G.V.V.A.A.9.w.C ! t.6.d.d.r.s.d.u.",
"g.f.f.g.g.g.h.i.B C w.V.I.G.A.A.G.G.I.G.Z.K.F e.h.g.l.g.g.g.k.j.",
"k.l.k.l.c.l.m.i.N C w.V.A.A.B.S.G.I.T.I.A.F.7.e.n.c.l.l.l.l.m.x.",
"l.h.c.l.f.f.c.a.C S w.9.G.S.B.V.A.G.I.G.A.D.7.e.b.k.f.g.n.n.k.l.",
"l.l.c.n.l.l.M.p.V V D S F F G 7.9.V.Z.A.G.H.9.e.].m.h.l.n.c.l.l.",
"l.n.m.M.m.n.M.z.= = s s s s d M M m m J G.D.9.e.n.c.n.m.m.m.l.c.",
"x.x.x.n.n.x.f.u.& $ * q w y q q y y q w m m B ! j.f.n.n.n.n.x.l.",
"                l z z z b v v v v v b b u u a x                 ",
"                i z n v v c a a i a v n b b p i                 ",
"                e i n v v c r i i i v c v p 9 e                 ",
"                9 i c c v v i r r i z v c p i e                 ",
"                % 8 i i i i 9 t t t i a a r e %                 ",
"                7 7 8 7 7 7 % % % % e e 8 7 7 %                 ",
"                8 8 9 8 t 8 8 8 7 7 t t 8 8 7 %                 ",
"                e e l g g g t r e e g l g g e 7                 ",
"                0 # # # # # 5 5 5 5 4 4 # # $ &                 ",
"                h k } [ [ { j j j k { { U I j f                 ",
"                L O.'.'.'./.o.o.^ O./.^.`./...L                 ",
"                P L T T T T T / ..^ ....../ L L                 "
};
