/* XPM */
static char *floor_removebg_preview1697533471[] = {
/* columns rows colors chars-per-pixel */
"32 32 72 1 ",
"  c None",
". c #372717",
"X c #4C3A23",
"o c #534326",
"O c #554529",
"+ c #5B472E",
"@ c #5C4B2C",
"# c #5E4B32",
"$ c #604E2D",
"% c #64522E",
"& c #614E32",
"* c #655333",
"= c #6A5535",
"- c #6D5936",
"; c #6C573A",
": c #6E5A38",
"> c #725C37",
", c #745D3A",
"< c #785F3B",
"1 c #736037",
"2 c #76633B",
"3 c #7B643D",
"4 c #7E693E",
"5 c #7D6542",
"6 c #7D6842",
"7 c #826B3F",
"8 c #806743",
"9 c #846C43",
"0 c #876C49",
"q c #8C7345",
"w c #8D7549",
"e c #9C7F46",
"r c #92764A",
"t c #947A4B",
"y c #997C4D",
"u c #937E52",
"i c #9C7F52",
"p c #9D844D",
"a c #9D8252",
"s c #A2864D",
"d c #A5894F",
"f c #AB8D4E",
"g c #A28552",
"h c #A98753",
"j c #A68952",
"k c #AA8C54",
"l c #A38759",
"z c #AB8C5A",
"x c #B18E55",
"c c #B18F5A",
"v c #AE9055",
"b c #AF9258",
"n c #B39256",
"m c #B4925B",
"M c #BA945D",
"N c #B7985F",
"B c #BA985E",
"V c #B59560",
"C c #BC9660",
"Z c #B59C63",
"A c #BE9B62",
"S c #C19D5F",
"D c #C29D64",
"F c #C6A066",
"G c #C9A266",
"H c #C4A36B",
"J c #CCA569",
"K c #CFA96B",
"L c #D0A76A",
"P c #D1A96C",
"I c #C4A57D",
"U c #DFB371",
/* pixels */
"                                ",
" I                   HHHHI      ",
" UmkkvnbvxGPKPFFvbKPPPPLKKKPKDns",
"AJCmnvt6hcMMxkkjsjkzkcCMkbZBFmfd",
"AKDDMC9%zBMMsspspppppsccpdmMFmfs",
"APDDxhppskddcncnBBBBBBMc,rDCBNfs",
" JCDkppjsppsnmMMDFADACMh@9DAZNvp",
" 6,,>-22223255333363,<3,*-22444 ",
" 3>;--222246333,3222>>=;<<;<3<0 ",
" PzagjpsssZASSjsDDsssy-9MMMMmMLD",
"ZGkgyejkhhBDMDjsSMdhhs9rcnnmmmGM",
"pkss7$hMMMmnDDssmMMMBMMmisspspfp",
"bVkvawzMMMCCAAjsxkccslMMzkkkkkNj",
"HPHFHHBMDDDDDDhggsdp;6FDFFHDFFPF",
"lzaaaayyaaiiairwwrwq:3aiaaaaaakg",
";;**OoOOOO#&#+*=**==##OOOOo@**- ",
"bmhzhlhlhl6>qthzzzgggiiihhhzzgp ",
"HPFGGFGGGD9-pjDDDDSMBCSDDDGDHMf ",
"zmjjjdhhkhcnxcMMhhhsfa8yDMhhfdf ",
" ksspggppsBDMMmcspgsst;9DSpsppv ",
" JCMcMcMDDDAjjjddssjmnknMCmnmbvp",
"ZGmcmnVcmZZMpppppppgmmmmccccmkj ",
" 5;*>,,,-*--==,2,,11<<<,=;;;=-2 ",
" r859099983366444444645665-,57r ",
" PDDGHDDDAzsCDjsssgpsssfHc&rFSK ",
" JCMzzZDADbkADsgvkkjjhpdVz4yBBJ ",
" Ddp1XcDDDDDDDgsADMMBmsspssspsD ",
" Gxnt9zmznDDAAgsAACCkxkfbkvvvmF ",
" PDFbjfpjsADFFhdDDGHpdBBGHHFFFP ",
"ugiyq9ww99ruay97yuytqqtr0qttttl ",
" 2>:,,32=$*@-,**--;;,-:*.X&#$%< ",
"                                "
};
